HIERARCHY
ROOT Hips
{
	OFFSET 0.000000 0.000000 0.000000
	CHANNELS 6 Xposition Yposition Zposition Zrotation Yrotation Xrotation 
	JOINT LHipJoint
	{
		OFFSET 0.000000 0.000000 0.000000
		CHANNELS 3 Zrotation Yrotation Xrotation
		JOINT LeftUpLeg
		{
			OFFSET 1.363060 -1.794630 0.839290
			CHANNELS 3 Zrotation Yrotation Xrotation
			JOINT LeftLeg
			{
				OFFSET 2.448110 -6.726130 0.000000
				CHANNELS 3 Zrotation Yrotation Xrotation
				JOINT LeftFoot
				{
					OFFSET 2.562200 -7.039590 0.000000
					CHANNELS 3 Zrotation Yrotation Xrotation
					JOINT LeftToeBase
					{
						OFFSET 0.157640 -0.433110 2.322550
						CHANNELS 3 Zrotation Yrotation Xrotation
						End Site
						{
							OFFSET 0.000000 0.000000 0.000000
						}
					}
				}
			}
		}
	}
	JOINT RHipJoint
	{
		OFFSET 0.000000 0.000000 0.000000
		CHANNELS 3 Zrotation Yrotation Xrotation
		JOINT RightUpLeg
		{
			OFFSET -1.305520 -1.794630 0.839290
			CHANNELS 3 Zrotation Yrotation Xrotation
			JOINT RightLeg
			{
				OFFSET -2.542530 -6.985550 0.000000
				CHANNELS 3 Zrotation Yrotation Xrotation
				JOINT RightFoot
				{
					OFFSET -2.568260 -7.056230 0.000000
					CHANNELS 3 Zrotation Yrotation Xrotation
					JOINT RightToeBase
					{
						OFFSET -0.164730 -0.452590 2.363150
						CHANNELS 3 Zrotation Yrotation Xrotation
						End Site
						{
							OFFSET 0.000000 0.000000 0.000000
						}
					}
				}
			}
		}
	}
	JOINT LowerBack
	{
		OFFSET 0.000000 0.000000 0.000000
		CHANNELS 3 Zrotation Yrotation Xrotation
		JOINT Spine
		{
			OFFSET 0.028270 2.035590 -0.193380
			CHANNELS 3 Zrotation Yrotation Xrotation
			JOINT Spine1
			{
				OFFSET 0.056720 2.048850 -0.042750
				CHANNELS 3 Zrotation Yrotation Xrotation
				JOINT Neck
				{
					OFFSET 0.000000 0.000000 0.000000
					CHANNELS 3 Zrotation Yrotation Xrotation
					JOINT Neck1
					{
						OFFSET -0.054170 1.746240 0.172020
						CHANNELS 3 Zrotation Yrotation Xrotation
						JOINT Head
						{
							OFFSET 0.104070 1.761360 -0.123970
							CHANNELS 3 Zrotation Yrotation Xrotation
							End Site
							{
								OFFSET 0.000000 0.000000 0.000000
							}
						}
					}
				}
				JOINT LeftShoulder
				{
					OFFSET 0.000000 0.000000 0.000000
					CHANNELS 3 Zrotation Yrotation Xrotation
					JOINT LeftArm
					{
						OFFSET 3.362410 1.200890 -0.311210
						CHANNELS 3 Zrotation Yrotation Xrotation
						JOINT LeftForeArm
						{
							OFFSET 4.983000 -0.000000 -0.000000
							CHANNELS 3 Zrotation Yrotation Xrotation
							JOINT LeftHand
							{
								OFFSET 3.483560 -0.000000 -0.000000
								CHANNELS 3 Zrotation Yrotation Xrotation
								JOINT LeftFingerBase
								{
									OFFSET 0.000000 0.000000 0.000000
									CHANNELS 3 Zrotation Yrotation Xrotation
									JOINT LeftHandIndex1
									{
										OFFSET 0.715260 -0.000000 -0.000000
										CHANNELS 3 Zrotation Yrotation Xrotation
										End Site
										{
											OFFSET 0.000000 0.000000 0.000000
										}
									}
								}
								JOINT LThumb
								{
									OFFSET 0.000000 0.000000 0.000000
									CHANNELS 3 Zrotation Yrotation Xrotation
									End Site
									{
										OFFSET 0.000000 0.000000 0.000000
									}
								}
							}
						}
					}
				}
				JOINT RightShoulder
				{
					OFFSET 0.000000 0.000000 0.000000
					CHANNELS 3 Zrotation Yrotation Xrotation
					JOINT RightArm
					{
						OFFSET -3.136600 1.374050 -0.404650
						CHANNELS 3 Zrotation Yrotation Xrotation
						JOINT RightForeArm
						{
							OFFSET -5.241900 -0.000000 -0.000000
							CHANNELS 3 Zrotation Yrotation Xrotation
							JOINT RightHand
							{
								OFFSET -3.444170 -0.000000 -0.000000
								CHANNELS 3 Zrotation Yrotation Xrotation
								JOINT RightFingerBase
								{
									OFFSET 0.000000 0.000000 0.000000
									CHANNELS 3 Zrotation Yrotation Xrotation
									JOINT RightHandIndex1
									{
										OFFSET -0.622530 -0.000000 -0.000000
										CHANNELS 3 Zrotation Yrotation Xrotation
										End Site
										{
											OFFSET 0.000000 0.000000 0.000000
										}
									}
								}
								JOINT RThumb
								{
									OFFSET 0.000000 0.000000 0.000000
									CHANNELS 3 Zrotation Yrotation Xrotation
									End Site
									{
										OFFSET 0.000000 0.000000 0.000000
									}
								}
							}
						}
					}
				}
			}
		}
	}
}
MOTION
Frames: 5
Frame Time: 0.008333
36.735541 17.786045 4.556700 -128.411817 -80.466703 140.500943 -1.151092 -0.827913 -0.688720 -7.880776 -5.160848 -7.547589 -0.332645 4.212457 10.283062 -1.503123 9.345175 -2.916834 0.000400 0.134500 0.369500 0.341343 1.337285 -1.823131 28.927252 9.367767 -8.103784 -0.221044 -5.562246 14.096515 1.660750 -11.605262 -4.843389 -0.270000 -3.342300 9.233100 4.903840 -1.795833 -2.868775 1.449249 -2.443736 -5.715166 4.454682 -1.489078 -0.702023 -11.016611 -8.428786 -11.244308 6.110329 -9.938367 7.827391 3.298700 -5.048000 7.299700 6.563032 3.185363 0.555591 -93.988820 2.999496 6.319735 9.587823 -27.470552 -2.800978 1.991830 2.766647 28.633064 12.480822 25.623103 4.626300 -7.125000 0.000000 0.000000 -17.050500 51.831300 -2.939000 -3.539557 -3.545748 -1.530556 87.317603 2.207436 19.001176 -9.624306 21.096588 -1.833397 -0.608784 0.407229 15.779490 -14.742310 -23.570070 5.785000 7.125000 0.000000 0.000000 15.944200 -53.802900 -3.519900 
36.734444 17.783852 4.553610 -128.670780 -80.503234 140.768731 -1.151977 -0.826590 -0.687342 -7.932829 -5.228427 -7.536979 -0.330436 4.233086 10.340205 -1.493030 9.296703 -3.039814 0.001900 0.283500 0.778900 0.342706 1.340447 -1.821634 28.855557 9.305826 -8.165171 -0.224753 -5.575093 14.137024 1.647799 -11.535221 -4.835580 -0.271300 -3.350200 9.255300 4.830984 -1.809174 -2.828082 1.432266 -2.450595 -5.730282 4.440960 -1.493715 -0.761511 -10.974008 -8.428018 -11.179906 6.090968 -9.954331 7.848477 3.283300 -5.057200 7.293500 6.561207 3.179092 0.555385 -93.968569 3.060648 6.346271 9.592632 -27.461547 -2.794826 1.970494 2.741618 28.621133 12.428687 25.291117 4.549100 -7.125000 0.000000 0.000000 -16.957100 51.534900 -2.796600 -3.539172 -3.544345 -1.531056 87.338379 2.142669 18.948944 -9.629497 21.105608 -1.843004 -0.604347 0.406411 15.789084 -14.469700 -23.298511 5.609800 7.125000 0.000000 0.000000 16.074000 -53.487500 -3.424300 
36.736538 17.784450 4.548525 -128.703184 -80.546007 140.739389 -1.150164 -0.824097 -0.682144 -7.955666 -5.179708 -7.525076 -0.327429 4.249666 10.388963 -1.470193 9.193333 -3.029104 0.002100 0.298900 0.821300 0.344534 1.341325 -1.818958 28.841409 9.261462 -8.188165 -0.234868 -5.615360 14.253669 1.643876 -11.511874 -4.895123 -0.266700 -3.322500 9.177900 4.715864 -1.908830 -2.697854 1.442454 -2.565188 -5.756708 4.493943 -1.551715 -0.901442 -10.867240 -8.336284 -10.986500 6.034059 -9.871224 7.854291 3.256400 -5.022700 7.238500 6.564031 3.160047 0.557716 -93.954218 3.237150 6.267793 9.618552 -27.482474 -2.801198 1.965989 2.740383 28.472942 12.489070 25.240102 4.561300 -7.125000 0.000000 0.000000 -16.882800 51.499000 -2.768600 -3.527000 -3.538088 -1.534652 87.353071 2.014126 19.110745 -9.634137 21.107606 -1.844465 -0.602833 0.408480 15.787929 -14.489892 -23.211502 5.599800 7.125000 0.000000 0.000000 16.011600 -53.409000 -3.379400 
36.734245 17.780761 4.545235 -128.873782 -80.576986 140.971943 -1.152031 -0.832367 -0.696878 -7.989936 -5.169639 -7.578304 -0.328569 4.249182 10.381211 -1.473687 9.212697 -2.999276 0.001100 0.209700 0.576100 0.341193 1.346266 -1.832646 28.793943 9.293944 -8.308210 -0.246082 -5.665192 14.392358 1.637018 -11.475587 -4.991150 -0.278600 -3.394700 9.379700 4.605365 -1.890313 -2.781495 1.442398 -2.543388 -5.655145 4.569798 -1.530807 -0.569506 -10.768695 -8.437773 -11.534763 5.981688 -9.965450 7.912506 3.189200 -5.050300 7.366900 6.582009 3.198807 0.550058 -94.025915 2.768557 6.277064 9.522400 -27.407630 -2.782778 1.982978 2.750204 28.613244 12.446112 25.357652 4.563600 -7.125000 0.000000 0.000000 -16.971700 51.588000 -2.821700 -3.547157 -3.561454 -1.528141 87.344595 2.444641 18.936859 -9.611062 21.071010 -1.838267 -0.602284 0.407413 15.820411 -14.456326 -23.155912 5.573200 7.125000 0.000000 0.000000 16.016100 -53.347400 -3.355900 
36.733447 17.779066 4.540948 -129.605159 -80.565077 141.654151 -1.154430 -0.825275 -0.687267 -8.058417 -5.123573 -7.534293 -0.329046 4.248251 10.375740 -1.478225 9.234157 -3.055684 0.000800 0.187100 0.514000 0.341869 1.350385 -1.830961 28.727978 9.367732 -8.324494 -0.260801 -5.722151 14.559182 1.634364 -11.457433 -5.070845 -0.270900 -3.347900 9.248700 4.572261 -1.874620 -2.700253 1.407027 -2.507010 -5.697630 4.492108 -1.518393 -0.739846 -10.918658 -8.443020 -11.152471 6.114621 -9.991186 7.863724 3.275900 -5.070300 7.293600 6.563433 3.185140 0.556267 -93.961823 3.004247 6.416274 9.566655 -27.445271 -2.791916 1.988091 2.751444 28.511865 12.561494 25.439395 4.620300 -7.125000 0.000000 0.000000 -16.906300 51.681500 -2.849800 -3.545866 -3.544526 -1.525113 87.374987 2.200263 18.877111 -9.627769 21.101721 -1.845292 -0.601264 0.409834 15.881399 -14.504633 -23.107247 5.583100 7.125000 0.000000 0.000000 15.945600 -53.310900 -3.326100 
